#!OML:ASF E:\Steps\Project 1\Capture day 1\Session 2\Subject.ASF
:FULLY-SPECIFIED
:DEGREES
119
root 8.89664 16.2659 31.6275 -158.332 -2.41658 176.132
lowerback -25.0998 -2.23205 -8.78954
upperback -1.51272 -0.857109 -1.19884
thorax 12.4576 -1.08921 3.32633
lowerneck -0.472945 -1.94987 -2.93701
upperneck -15.658 -2.94664 7.36804
head -4.43202 -2.15831 2.90466
rclavicle -5.26779e-015 -1.03368e-014
rhumerus -31.5132 -18.015 -81.2521
rradius 27.2568
rwrist 0.677269
rhand -7.3213 -54.5738
rfingers 7.12502
rthumb 18.5618 -83.7082
lclavicle -5.26779e-015 -1.03368e-014
lhumerus -26.1804 4.35949 83.8823
lradius 17.9521
lwrist -6.59195
lhand -21.42 -11.1268
lfingers 7.12502
lthumb 4.96877 18.795
rfemur -19.8361 6.83465 15.6666
rtibia 9.62241
rfoot -20.4759 -8.45524
rtoes -30.7435
lfemur -21.5234 -10.5709 -24.0073
ltibia 11.9948
lfoot -10.2741 1.20485
ltoes -38.9289
120
root 8.89434 16.2667 31.6259 -158.378 -2.51663 176.119
lowerback -25.0731 -2.24783 -8.75389
upperback -1.47958 -0.882285 -1.20468
thorax 12.4849 -1.09792 3.29045
lowerneck -0.5426 -1.95431 -2.95214
upperneck -15.593 -2.9488 7.40025
head -4.39943 -2.15749 2.91433
rclavicle 1.00883e-014 -1.27222e-014
rhumerus -31.6351 -18.1432 -81.1513
rradius 27.2178
rwrist 0.763407
rhand -7.16407 -54.609
rfingers 7.12502
rthumb 18.713 -83.7289
lclavicle 1.00883e-014 -1.27222e-014
lhumerus -26.1899 4.63148 83.7271
lradius 17.6405
lwrist -6.8762
lhand -21.7762 -11.2925
lfingers 7.12502
lthumb 4.62485 18.637
rfemur -19.7306 6.59898 15.6977
rtibia 9.60389
rfoot -20.5389 -8.30428
rtoes -30.4536
lfemur -21.5178 -10.4787 -24.0445
ltibia 12.1343
lfoot -10.2912 0.984097
ltoes -38.3959
121
root 8.89313 16.2667 31.625 -158.342 -2.58938 176.114
lowerback -25.0928 -2.27882 -8.73546
upperback -1.48672 -0.928278 -1.19909
thorax 12.4929 -1.1186 3.26961
lowerneck -0.497952 -1.92863 -2.95777
upperneck -15.6134 -2.91422 7.38311
head -4.41524 -2.13961 2.91021
rclavicle -1.68967e-015 -2.06736e-014
rhumerus -31.8118 -18.1047 -81.1455
rradius 27.3028
rwrist 0.664284
rhand -7.20006 -54.5209
rfingers 7.12502
rthumb 18.6784 -83.6441
lclavicle -1.68967e-015 -2.06736e-014
lhumerus -26.2257 5.07975 83.4703
lradius 17.2632
lwrist -7.51877
lhand -21.7534 -11.0878
lfingers 7.12502
lthumb 4.64687 18.8412
rfemur -19.726 6.81066 15.6748
rtibia 9.60401
rfoot -20.5746 -8.60459
rtoes -30.6538
lfemur -21.6572 -10.3797 -24.0636
ltibia 12.3262
lfoot -10.4053 0.886744
ltoes -39.056
122
root 8.89165 16.2665 31.6245 -158.25 -2.6194 176.126
lowerback -25.1364 -2.28739 -8.69376
upperback -1.52933 -0.955969 -1.20085
thorax 12.4691 -1.1297 3.2336
lowerneck -0.485398 -1.90917 -2.93477
upperneck -15.6079 -2.8867 7.37681
head -4.41763 -2.12665 2.90368
rclavicle -2.48481e-015 7.95139e-015
rhumerus -31.9224 -18.2543 -81.084
rradius 27.2631
rwrist 0.739488
rhand -7.17279 -54.1409
rfingers 7.12502
rthumb 18.7046 -83.2616
lclavicle -2.48481e-015 7.95139e-015
lhumerus -26.2751 5.80422 83.0576
lradius 16.7717
lwrist -8.44591
lhand -21.7508 -11.0677
lfingers 7.12502
lthumb 4.64939 18.8612
rfemur -19.8523 6.48659 15.7122
rtibia 9.62013
rfoot -20.5221 -8.4074
rtoes -31.3757
lfemur -21.7621 -10.5882 -24.0081
ltibia 12.2896
lfoot -10.4583 1.06506
ltoes -39.31
123
root 8.88923 16.2666 31.6237 -158.176 -2.62077 176.107
lowerback -25.1818 -2.29849 -8.68741
upperback -1.55357 -0.974287 -1.19175
thorax 12.4675 -1.13908 3.23326
lowerneck -0.519183 -1.87643 -2.96499
upperneck -15.5908 -2.84517 7.35717
head -4.4089 -2.10245 2.90037
rclavicle 1.23743e-014 1.63003e-014
rhumerus -31.9879 -18.4681 -80.9143
rradius 27.1252
rwrist 0.959889
rhand -6.96381 -53.8611
rfingers 7.12502
rthumb 18.9056 -82.9623
lclavicle 1.23743e-014 1.63003e-014
lhumerus -26.3688 6.27587 82.7961
lradius 16.4771
lwrist -8.9105
lhand -21.6097 -11.2531
lfingers 7.12502
lthumb 4.78568 18.6729
rfemur -19.9227 6.59057 15.6493
rtibia 9.57411
rfoot -20.4482 -8.51268
rtoes -31.5059
lfemur -21.8137 -10.8129 -23.9923
ltibia 12.2428
lfoot -10.4208 1.19287
ltoes -38.8489
124
root 8.88751 16.2663 31.6234 -158.139 -2.57587 176.09
lowerback -25.193 -2.30108 -8.70271
upperback -1.56665 -0.976947 -1.1696
thorax 12.4591 -1.14182 3.26643
lowerneck -0.542978 -1.83617 -3.01885
upperneck -15.6365 -2.79919 7.33018
head -4.42106 -2.07794 2.90044
rclavicle 6.80837e-015 -2.38542e-015
rhumerus -32.083 -18.5024 -80.7909
rradius 27.0665
rwrist 0.974941
rhand -6.94071 -53.9404
rfingers 7.12502
rthumb 18.9278 -83.0395
lclavicle 6.80837e-015 -2.38542e-015
lhumerus -26.5296 6.42913 82.6726
lradius 16.4054
lwrist -9.0791
lhand -21.0566 -11.2753
lfingers 7.12502
lthumb 5.31971 18.638
rfemur -19.9789 6.63865 15.6013
rtibia 9.58505
rfoot -20.4093 -8.4973
rtoes -31.2894
lfemur -21.8513 -10.8647 -24.0059
ltibia 12.2836
lfoot -10.3919 1.20717
ltoes -38.1379
125
root 8.88699 16.2663 31.6218 -158.174 -2.54304 176.074
lowerback -25.1406 -2.30276 -8.71517
upperback -1.55798 -0.978178 -1.17396
thorax 12.4411 -1.14169 3.26898
lowerneck -0.546355 -1.83179 -3.01835
upperneck -15.6757 -2.79489 7.35617
head -4.43216 -2.08044 2.90933
rclavicle 1.46604e-014 -5.96354e-015
rhumerus -32.1392 -18.5414 -80.7425
rradius 26.98
rwrist 0.925786
rhand -7.07122 -54.0364
rfingers 7.12502
rthumb 18.8023 -83.1477
lclavicle 1.46604e-014 -5.96354e-015
lhumerus -26.6479 6.68347 82.4705
lradius 16.2236
lwrist -9.4312
lhand -20.8984 -11.1631
lfingers 7.12502
lthumb 5.47246 18.7462
rfemur -19.9456 6.50501 15.6036
rtibia 9.593
rfoot -20.3895 -8.36967
rtoes -31.5504
lfemur -21.791 -10.9498 -24.0146
ltibia 12.2825
lfoot -10.3952 1.25107
ltoes -37.3814
126
root 8.88573 16.2675 31.6203 -158.162 -2.56747 176.059
lowerback -25.146 -2.30917 -8.69249
upperback -1.52538 -0.984084 -1.19874
thorax 12.4825 -1.14319 3.22491
lowerneck -0.623013 -1.84544 -2.99667
upperneck -15.7077 -2.81791 7.39425
head -4.42744 -2.09933 2.91794
rclavicle 1.38155e-014 2.18663e-014
rhumerus -32.1053 -18.6966 -80.7137
rradius 26.8582
rwrist 1.00388
rhand -7.14887 -54.3684
rfingers 7.12502
rthumb 18.7276 -83.4869
lclavicle 1.38155e-014 2.18663e-014
lhumerus -26.5967 7.18704 82.1746
lradius 15.8463
lwrist -9.99252
lhand -21.1423 -11.1045
lfingers 7.12502
lthumb 5.23693 18.8108
rfemur -19.9295 6.48168 15.5911
rtibia 9.56089
rfoot -20.3592 -8.39315
rtoes -31.7111
lfemur -21.8089 -10.843 -24.0519
ltibia 12.2788
lfoot -10.3756 1.1224
ltoes -37.6059
127
root 8.88319 16.2687 31.6219 -158.061 -2.60235 176.052
lowerback -25.2157 -2.29631 -8.65713
upperback -1.5608 -0.976644 -1.22142
thorax 12.4766 -1.13899 3.18043
lowerneck -0.550554 -1.83716 -3.01837
upperneck -15.6953 -2.79796 7.41726
head -4.43599 -2.08737 2.92887
rclavicle 1.22253e-014 9.93923e-015
rhumerus -32.223 -18.8417 -80.6399
rradius 26.8171
rwrist 1.06941
rhand -7.27086 -54.7204
rfingers 7.12502
rthumb 18.6103 -83.8502
lclavicle 1.22253e-014 9.93923e-015
lhumerus -26.6305 7.67566 81.8927
lradius 15.4522
lwrist -10.3172
lhand -21.5388 -11.0002
lfingers 7.12502
lthumb 4.85412 18.9242
rfemur -20.042 6.50441 15.5583
rtibia 9.56502
rfoot -20.3418 -8.47399
rtoes -31.5125
lfemur -21.9463 -10.707 -24.0827
ltibia 12.2932
lfoot -10.3159 1.03037
ltoes -38.4535
